<mxfile host="65bd71144e" modified="2020-10-21T17:45:55.399Z" agent="5.0 (Macintosh; Intel Mac OS X 10_14_6) AppleWebKit/537.36 (KHTML, like Gecko) Code/1.50.1 Chrome/83.0.4103.122 Electron/9.2.1 Safari/537.36" version="13.6.5" etag="uGGBpVpXss0U6dcE-7qK">
    <diagram id="0ZT2L9oz6mwxwcb9JMNi" name="Page-1">
        <mxGraphModel dx="3396" dy="1895" grid="1" gridSize="10" guides="1" tooltips="1" connect="1" arrows="1" fold="1" page="1" pageScale="1" pageWidth="850" pageHeight="1100" math="0" shadow="0">
            <root>
                <mxCell id="0"/>
                <mxCell id="1" parent="0"/>
                <mxCell id="13" style="edgeStyle=orthogonalEdgeStyle;rounded=0;orthogonalLoop=1;jettySize=auto;html=1;" edge="1" parent="1" source="5" target="7">
                    <mxGeometry relative="1" as="geometry"/>
                </mxCell>
                <mxCell id="15" value="Send Request to Proxy" style="edgeLabel;html=1;align=center;verticalAlign=middle;resizable=0;points=[];" vertex="1" connectable="0" parent="13">
                    <mxGeometry x="-0.0756" y="-3" relative="1" as="geometry">
                        <mxPoint y="-3" as="offset"/>
                    </mxGeometry>
                </mxCell>
                <mxCell id="5" value="" style="pointerEvents=1;shadow=0;dashed=0;html=1;strokeColor=none;fillColor=#434445;aspect=fixed;labelPosition=center;verticalLabelPosition=bottom;verticalAlign=top;align=center;outlineConnect=0;shape=mxgraph.vvd.web_browser;" vertex="1" parent="1">
                    <mxGeometry x="-780" y="234.20000000000002" width="129.01" height="91.6" as="geometry"/>
                </mxCell>
                <mxCell id="29" style="edgeStyle=orthogonalEdgeStyle;rounded=0;orthogonalLoop=1;jettySize=auto;html=1;" edge="1" parent="1" source="7" target="28">
                    <mxGeometry relative="1" as="geometry"/>
                </mxCell>
                <mxCell id="33" value="Add CORS Headers &lt;br&gt;to the proxed request" style="edgeLabel;html=1;align=center;verticalAlign=middle;resizable=0;points=[];" vertex="1" connectable="0" parent="29">
                    <mxGeometry x="-0.0886" y="2" relative="1" as="geometry">
                        <mxPoint as="offset"/>
                    </mxGeometry>
                </mxCell>
                <mxCell id="7" value="CORS Anywhere&lt;br&gt;Proxy" style="rounded=0;whiteSpace=wrap;html=1;" vertex="1" parent="1">
                    <mxGeometry x="-470" y="250" width="120" height="60" as="geometry"/>
                </mxCell>
                <mxCell id="25" style="edgeStyle=orthogonalEdgeStyle;rounded=0;orthogonalLoop=1;jettySize=auto;html=1;exitX=0.5;exitY=1;exitDx=0;exitDy=0;exitPerimeter=0;" edge="1" parent="1" source="28" target="5">
                    <mxGeometry relative="1" as="geometry">
                        <mxPoint x="-210" y="308.19999999999993" as="sourcePoint"/>
                        <Array as="points">
                            <mxPoint x="-110" y="410"/>
                            <mxPoint x="-720" y="410"/>
                        </Array>
                    </mxGeometry>
                </mxCell>
                <mxCell id="34" value="Return Response" style="edgeLabel;html=1;align=center;verticalAlign=middle;resizable=0;points=[];" vertex="1" connectable="0" parent="25">
                    <mxGeometry x="0.0592" y="-2" relative="1" as="geometry">
                        <mxPoint as="offset"/>
                    </mxGeometry>
                </mxCell>
                <mxCell id="12" style="edgeStyle=orthogonalEdgeStyle;rounded=0;orthogonalLoop=1;jettySize=auto;html=1;" edge="1" parent="1" source="11" target="5">
                    <mxGeometry relative="1" as="geometry"/>
                </mxCell>
                <mxCell id="38" value="Make HTTP Request &lt;br&gt;(e.g. search for datasets)" style="edgeLabel;html=1;align=center;verticalAlign=middle;resizable=0;points=[];" vertex="1" connectable="0" parent="12">
                    <mxGeometry x="-0.08" y="-2" relative="1" as="geometry">
                        <mxPoint as="offset"/>
                    </mxGeometry>
                </mxCell>
                <mxCell id="11" value="" style="shape=actor;whiteSpace=wrap;html=1;" vertex="1" parent="1">
                    <mxGeometry x="-1010" y="250" width="40" height="60" as="geometry"/>
                </mxCell>
                <mxCell id="18" value="&lt;b&gt;Scenario 1&lt;/b&gt;&lt;br&gt;Origin is NOT whitelisted by API for &quot;cross-site&quot; requests" style="text;html=1;strokeColor=none;fillColor=none;align=left;verticalAlign=middle;whiteSpace=wrap;rounded=0;" vertex="1" parent="1">
                    <mxGeometry x="-1050" y="140" width="130" height="90" as="geometry"/>
                </mxCell>
                <mxCell id="19" value="&lt;b&gt;Scenario 2&lt;br&gt;&lt;/b&gt;Origin is whitelisted by API for &quot;cross-site&quot; requests" style="text;html=1;strokeColor=none;fillColor=none;align=left;verticalAlign=middle;whiteSpace=wrap;rounded=0;" vertex="1" parent="1">
                    <mxGeometry x="-1050" y="480" width="130" height="90" as="geometry"/>
                </mxCell>
                <mxCell id="23" value="Send Request" style="edgeStyle=orthogonalEdgeStyle;rounded=0;orthogonalLoop=1;jettySize=auto;html=1;" edge="1" parent="1" source="20" target="21">
                    <mxGeometry relative="1" as="geometry">
                        <Array as="points">
                            <mxPoint x="-570" y="610"/>
                            <mxPoint x="-570" y="610"/>
                        </Array>
                    </mxGeometry>
                </mxCell>
                <mxCell id="20" value="" style="pointerEvents=1;shadow=0;dashed=0;html=1;strokeColor=none;fillColor=#434445;aspect=fixed;labelPosition=center;verticalLabelPosition=bottom;verticalAlign=top;align=center;outlineConnect=0;shape=mxgraph.vvd.web_browser;" vertex="1" parent="1">
                    <mxGeometry x="-779.99" y="573.8" width="129.01" height="91.6" as="geometry"/>
                </mxCell>
                <mxCell id="24" value="Return Response" style="edgeStyle=orthogonalEdgeStyle;rounded=0;orthogonalLoop=1;jettySize=auto;html=1;" edge="1" parent="1" source="21" target="20">
                    <mxGeometry relative="1" as="geometry">
                        <Array as="points">
                            <mxPoint x="-570" y="640"/>
                            <mxPoint x="-570" y="640"/>
                        </Array>
                    </mxGeometry>
                </mxCell>
                <mxCell id="21" value="" style="html=1;dashed=0;whitespace=wrap;fillColor=#2875E2;strokeColor=#ffffff;points=[[0.005,0.63,0],[0.1,0.2,0],[0.9,0.2,0],[0.5,0,0],[0.995,0.63,0],[0.72,0.99,0],[0.5,1,0],[0.28,0.99,0]];shape=mxgraph.kubernetes.icon;prIcon=api" vertex="1" parent="1">
                    <mxGeometry x="-490" y="589.5999999999999" width="120" height="74" as="geometry"/>
                </mxCell>
                <mxCell id="39" style="edgeStyle=orthogonalEdgeStyle;rounded=0;orthogonalLoop=1;jettySize=auto;html=1;" edge="1" parent="1" source="22" target="20">
                    <mxGeometry relative="1" as="geometry"/>
                </mxCell>
                <mxCell id="40" value="&lt;span style=&quot;color: rgba(0 , 0 , 0 , 0) ; font-family: monospace ; font-size: 0px ; background-color: rgb(248 , 249 , 250)&quot;&gt;%3CmxGraphModel%3E%3Croot%3E%3CmxCell%20id%3D%220%22%2F%3E%3CmxCell%20id%3D%221%22%20parent%3D%220%22%2F%3E%3CmxCell%20id%3D%222%22%20value%3D%22Make%20HTTP%20Request%20%26lt%3Bbr%26gt%3B(e.g.%20search%20for%20datasets)%22%20style%3D%22edgeLabel%3Bhtml%3D1%3Balign%3Dcenter%3BverticalAlign%3Dmiddle%3Bresizable%3D0%3Bpoints%3D%5B%5D%3B%22%20vertex%3D%221%22%20connectable%3D%220%22%20parent%3D%221%22%3E%3CmxGeometry%20x%3D%22-883%22%20y%3D%22282%22%20as%3D%22geometry%22%2F%3E%3C%2FmxCell%3E%3C%2Froot%3E%3C%2FmxGraphModel%3E&lt;/span&gt;" style="edgeLabel;html=1;align=center;verticalAlign=middle;resizable=0;points=[];" vertex="1" connectable="0" parent="39">
                    <mxGeometry y="10" relative="1" as="geometry">
                        <mxPoint x="-10" y="8" as="offset"/>
                    </mxGeometry>
                </mxCell>
                <mxCell id="41" value="Make HTTP Request&amp;nbsp;&lt;br&gt;(e.g. search for datasets)" style="edgeLabel;html=1;align=center;verticalAlign=middle;resizable=0;points=[];" vertex="1" connectable="0" parent="39">
                    <mxGeometry y="-12" relative="1" as="geometry">
                        <mxPoint x="-12" y="-12" as="offset"/>
                    </mxGeometry>
                </mxCell>
                <mxCell id="22" value="" style="shape=actor;whiteSpace=wrap;html=1;" vertex="1" parent="1">
                    <mxGeometry x="-1020.49" y="589.6" width="40" height="60" as="geometry"/>
                </mxCell>
                <mxCell id="28" value="" style="html=1;dashed=0;whitespace=wrap;fillColor=#2875E2;strokeColor=#ffffff;points=[[0.005,0.63,0],[0.1,0.2,0],[0.9,0.2,0],[0.5,0,0],[0.995,0.63,0],[0.72,0.99,0],[0.5,1,0],[0.28,0.99,0]];shape=mxgraph.kubernetes.icon;prIcon=api" vertex="1" parent="1">
                    <mxGeometry x="-170" y="243" width="120" height="74" as="geometry"/>
                </mxCell>
                <mxCell id="35" value="Must include header: &lt;br&gt;1. `origin` (cross-site, attached by browser)&amp;nbsp;&lt;br&gt;2. `X-Requested-With` (same-site, attached by HTTP client)" style="text;html=1;strokeColor=none;fillColor=none;align=left;verticalAlign=middle;whiteSpace=wrap;rounded=0;" vertex="1" parent="1">
                    <mxGeometry x="-640" y="150" width="180.99" height="84.2" as="geometry"/>
                </mxCell>
                <mxCell id="37" value="&lt;span style=&quot;background-color: rgb(255 , 255 , 255)&quot;&gt;More Info:&amp;nbsp;&lt;/span&gt;&lt;span style=&quot;font-size: 13px&quot;&gt;  &lt;br&gt;&lt;/span&gt;&lt;ul&gt;&lt;li&gt;&lt;span&gt;&lt;a href=&quot;https://github.com/Rob--W/cors-anywhere/issues/7#issuecomment-354740387&quot;&gt;https://github.com/Rob--W/cors-anywhere/issues/7#issuecomment-354740387&lt;/a&gt;&lt;br&gt;&lt;/span&gt;&lt;/li&gt;&lt;li&gt;&lt;a href=&quot;https://github.com/Rob--W/cors-anywhere/issues/39#issuecomment-387690291&quot;&gt;&lt;span&gt;https://github.com/Rob--W/cors-anywhere/issues/39#issuecomment-387690291&lt;/span&gt;&lt;br&gt;&lt;/a&gt;&lt;/li&gt;&lt;li&gt;&lt;span style=&quot;background-color: rgb(255 , 255 , 255)&quot;&gt;&lt;a href=&quot;https://github.com/Rob--W/cors-anywhere/pull/145#issuecomment-450528241&quot;&gt;&lt;span style=&quot;font-size: 13px&quot;&gt;https://github.com/Rob--W/cors-anywhere/pull/145#issuecomment-450528241&lt;/span&gt;&amp;nbsp;&lt;/a&gt;&lt;/span&gt;&lt;/li&gt;&lt;/ul&gt;" style="text;html=1;strokeColor=none;fillColor=none;align=left;verticalAlign=middle;whiteSpace=wrap;rounded=0;" vertex="1" parent="1">
                    <mxGeometry x="-1050" y="730" width="530" height="110" as="geometry"/>
                </mxCell>
                <mxCell id="42" value="&lt;h1&gt;&lt;span&gt;CORS Proxy&amp;nbsp;&lt;br&gt;&lt;/span&gt;&lt;span style=&quot;font-size: 12px ; font-weight: normal&quot;&gt;This diagram shows how requests are proxied to include CORS headers when sent to a REST API if the request's origin (domain) is not whitelistd by the API's server.&lt;/span&gt;&lt;br&gt;&lt;/h1&gt;" style="text;html=1;strokeColor=none;fillColor=none;spacing=5;spacingTop=-20;whiteSpace=wrap;overflow=hidden;rounded=0;" vertex="1" parent="1">
                    <mxGeometry x="-1070" y="-10" width="330" height="120" as="geometry"/>
                </mxCell>
            </root>
        </mxGraphModel>
    </diagram>
</mxfile>